<svg xmlns="http://www.w3.org/2000/svg" viewBox="0 0 986 383.95"><script xmlns=""/><defs><style>.drk{fill:#111;}</style></defs><g id="Layer_2" data-name="Layer 2"><g id="Layer_1-2" data-name="Layer 1"><ellipse class="drk" cx="493" cy="217.72" rx="493" ry="166.22"/><rect fill="#fff" x="376.5" y="123.5" width="233" height="107" rx="16.23"/><path class="drk" d="M493,69.7l113.23,55.48L493,180.67,379.77,125.18,493,69.7m0-10-133.68,65.5L493,190.69l133.68-65.51L493,59.68Z"/><path fill="#d17e11" d="M492,149c-19.91.46-27.23-3-40.73-10.3s-18.54-20.6-21.06-26.09S421,48.29,421,48.29s16,30,17.16,32.26,10.64,16.25,16.59,16.71,14-9.38,18.53-34.79S470.46,0,470.46,0s14.85,33.13,18.87,41.88c8.3,18,1.72,33.37,8.47,42.11,18.19,28.83,24.26,13.5,29-3.67,2.31-8.46,2.06-28.37.22-33.18S520.81,32,520.81,32s13,12.36,14.64,15.33,15.11,21.05,14.88,34.79,3.66,42.1-5,51S511.88,148.52,492,149Z"/></g></g></svg>